<svg width="813" height="251" viewBox="0 0 813 251" fill="none" xmlns="http://www.w3.org/2000/svg">
<path d="M597.95 203.056C595.804 204.727 594.373 206.063 592.943 207.065C587.936 211.409 583.287 216.42 577.208 219.761C555.751 231.455 533.221 240.81 508.188 242.146C493.168 243.149 477.791 243.149 463.486 237.469C450.969 232.457 439.526 225.441 429.155 216.754C425.936 214.082 422.36 211.409 418.426 208.402C415.923 210.407 413.777 212.077 411.631 213.748C387.671 234.462 358.704 245.487 326.876 250.165C317.221 251.501 307.207 250.833 297.194 250.833C275.022 250.833 255.353 243.817 237.472 232.123C233.539 229.784 229.605 227.446 225.313 225.107C216.731 220.095 209.578 214.082 203.499 206.397C202.784 205.729 202.068 205.061 200.638 204.059C197.062 206.397 193.485 208.736 189.909 211.075C180.611 217.757 171.671 224.773 161.658 230.787C138.413 244.485 113.737 245.821 87.9887 237.469C76.9025 233.794 65.1012 230.453 54.7303 225.107C39.3528 217.423 25.4058 207.734 15.0349 194.035C5.02165 181.34 1.44548 166.973 0.0150177 151.604C0.0150177 142.918 0.372634 133.897 0.0150177 124.542C-0.342599 109.842 5.73688 96.4775 12.8892 83.7816C21.8296 67.4105 33.2733 52.3759 48.2932 40.0141C55.4456 34.0002 63.3131 29.3228 70.8231 24.3113C74.3992 21.9725 77.2602 19.2997 81.1939 17.2951C85.4853 14.9564 89.7767 12.2836 94.4257 11.2813C120.532 4.9333 146.638 7.94022 171.671 16.961C182.757 20.9702 192.413 26.9841 200.995 34.6684C204.929 38.0095 208.863 41.0164 213.154 44.3574C219.591 38.3436 226.029 32.3297 232.823 26.65C236.757 23.309 241.048 19.9679 244.982 16.6269C254.995 8.60843 266.797 4.9333 279.671 3.59689C287.539 2.92868 295.406 1.92637 303.631 1.92637C315.79 1.59227 327.234 4.26509 338.678 7.27202C343.684 8.60843 348.691 10.2789 353.698 11.6154C363.353 14.9564 372.294 18.9656 380.519 24.9795C391.605 33.332 402.691 41.3505 414.135 50.0372C416.996 48.0326 419.857 45.3597 423.075 43.6892C437.022 35.3367 450.969 26.9841 464.916 18.2974C468.492 15.9587 472.426 13.62 475.645 10.9471C488.877 0.255859 504.969 -1.41465 521.42 0.924065C533.221 2.59458 544.665 5.2674 556.109 8.60843C564.334 10.9471 572.201 14.6223 579.711 18.2974C583.287 19.9679 586.506 23.309 588.652 26.3159C594.016 32.9979 598.307 40.3482 603.314 47.0303C609.393 42.6869 615.83 38.0095 622.268 33.332C636.215 23.309 651.95 17.2951 668.4 12.6177C678.413 9.94484 688.427 10.613 698.797 11.9495C707.38 13.2859 715.963 14.9564 724.546 16.2928C742.784 19.2997 758.162 27.6523 769.605 41.3505C776.758 50.0372 783.195 59.058 789.632 68.0787C796.784 78.4359 801.433 90.1295 804.294 102.157C809.659 122.537 811.447 143.252 812.877 164.3C813.95 179.001 807.87 192.365 799.645 204.059C795.712 209.738 788.202 213.748 782.122 217.757C776.043 221.766 769.248 225.107 763.168 228.448C748.148 236.801 731.341 239.808 714.175 241.812C689.142 244.485 665.897 238.471 642.294 232.457C624.056 228.114 612.254 217.089 600.095 205.395C599.38 204.727 599.022 204.393 597.95 203.056Z" fill="#E9FF64"/>
</svg>
