<svg width="342" height="340" viewBox="0 0 342 340" fill="none" xmlns="http://www.w3.org/2000/svg">
<path d="M284.407 178.015L242.707 184.543L269.018 199.372L283.186 209.581L277.329 235.447L259.702 259.91L238.699 271.322L211.082 262.041L199.57 253.746L189.041 227.283L187.615 245.132L177.423 271.414L159.636 283.963L146.513 286.306L130.174 287.511L106.707 270.602L97.6483 239.299L107.631 210.507L94.6254 211.754L53.4914 195.093L31.7958 179.461L31.8968 149.448L57.3581 114.112L104.65 111.024L134.62 127.309L125.208 110.499L115.451 74.5626L115.691 49.9588L146.509 31.4603L188.205 36.1382L209.901 51.7709L217.12 73.4907L200.259 110.894L233.734 94.3099L265.034 100.346L288.501 117.255L294.181 146.713L284.407 178.015Z" fill="#FFFFFF"/>
</svg>
