<svg width="858" height="195" viewBox="0 0 858 195" fill="none" xmlns="http://www.w3.org/2000/svg">
<g clip-path="url(#clip0)">
<path d="M0 122.302V5.13086H75.2782V116.315C75.2782 131.71 83.8325 136.841 95.8086 136.841C107.785 136.841 116.339 131.71 116.339 116.315V5.13086H191.617V122.302C191.617 173.618 159.966 195.855 95.8086 195.855C31.651 195.855 0 173.618 0 122.302Z" fill="white"/>
<path d="M440.548 190.723V5.13086H531.224L555.176 62.4335C561.164 76.973 568.008 94.9335 575.707 112.894H576.562C575.707 94.9335 574.851 69.2756 574.851 58.1572V5.13086H644.997V190.723H552.61L526.947 131.71C520.959 118.026 514.116 100.065 508.128 83.8151H507.272C508.128 104.341 508.983 129.999 508.983 135.131V190.723H440.548Z" fill="white"/>
<path d="M347.306 190.723V135.131C347.306 129.999 348.161 103.486 349.017 83.8149H348.161C342.173 100.065 335.33 118.025 329.342 131.71L303.679 190.723H213.858V5.13065H284.004V57.3017C284.004 68.4201 283.149 94.078 282.293 112.039C289.137 94.9333 296.835 76.1175 302.824 61.578L326.776 4.27539H417.452V189.868H347.306V190.723Z" fill="white"/>
<path d="M761.336 0C826.349 0 857.145 21.3816 857.145 73.5526V190.724H781.867V79.5395C781.867 63.2895 773.312 59.0132 761.336 59.0132C749.36 59.0132 740.806 64.1447 740.806 79.5395V190.724H665.528V72.6974C665.528 21.3816 697.179 0 761.336 0Z" fill="white"/>
</g>
<defs>
<clipPath id="clip0">
<rect width="858" height="195" fill="white"/>
</clipPath>
</defs>
</svg>
