<?xml version="1.0" encoding="utf-8"?>
<!-- Generator: Adobe Illustrator 24.0.3, SVG Export Plug-In . SVG Version: 6.00 Build 0)  -->
<svg version="1.1" id="Lager_1" xmlns="http://www.w3.org/2000/svg" xmlns:xlink="http://www.w3.org/1999/xlink" x="0px" y="0px"
	 viewBox="0 0 858 195" style="enable-background:new 0 0 858 195;" xml:space="preserve">
<style type="text/css">
	.st0{font-family:'ArialMT';}
	.st1{font-size:12px;}
</style>
<g>
	<g>
		<path d="M0,122.3V5.1h75.3v111.2c0,15.4,8.6,20.5,20.5,20.5c12,0,20.5-5.1,20.5-20.5V5.1h75.3v117.2c0,51.3-31.7,73.6-95.8,73.6
			S0,173.6,0,122.3z"/>
		<path d="M440.5,190.7V5.1h90.7l24,57.3c6,14.5,12.8,32.5,20.5,50.5h0.9c-0.9-18-1.7-43.6-1.7-54.7v-53H645v185.6h-92.4l-25.7-59
			c-6-13.7-12.8-31.6-18.8-47.9h-0.9c0.9,20.5,1.7,46.2,1.7,51.3v55.6L440.5,190.7L440.5,190.7z"/>
		<path d="M347.3,190.7v-55.6c0-5.1,0.9-31.6,1.7-51.3h-0.9c-6,16.3-12.8,34.2-18.8,47.9l-25.7,59h-89.8V5.1H284v52.2
			c0,11.1-0.9,36.8-1.7,54.7c6.8-17.1,14.5-35.9,20.5-50.5l24-57.3h90.7v185.6h-70.1v0.9H347.3z"/>
		<path d="M761.3,0c65,0,95.8,21.4,95.8,73.6v117.2h-75.3V79.5c0-16.2-8.6-20.5-20.5-20.5s-20.5,5.1-20.5,20.5v111.2h-75.3v-118
			C665.5,21.4,697.2,0,761.3,0z"/>
	</g>
</g>
<text class="st0 st1"> </text>
<text class="st0 st1"> </text>
</svg>
